# xmcd
#
# Track frame offsets:
#	150
#	16866
#	35713
#	57360
#	72543
#	85509
#	101558
#	125119
#	142901
#	163331
#
# Disc length: 2411 seconds
#
# Revision: 2
# Processed by: cddbd v1.5.2PL0 Copyright (c) Steve Scherf et al.
# Submitted via: EasyCDDAExtractor 15.3.0.1
#
DISCID=8a09690a
DTITLE=Cher - Dancing Queen
DYEAR=2018
DGENRE=Pop
TTITLE0=Dancing Queen
TTITLE1=Gimme! Gimme! Gimme! (A Man After Midnight)
TTITLE2=The Name Of The Game
TTITLE3=SOS
TTITLE4=Waterloo
TTITLE5=Mamma Mia
TTITLE6=Chiquitita
TTITLE7=Fernando
TTITLE8=The Winner Takes It All
TTITLE9=One Of Us
EXTD=
EXTT0=
EXTT1=
EXTT2=
EXTT3=
EXTT4=
EXTT5=
EXTT6=
EXTT7=
EXTT8=
EXTT9=
PLAYORDER=
